<svg width="852" height="693" viewBox="0 0 852 693" fill="none" xmlns="http://www.w3.org/2000/svg">
<g opacity="0.2">
<g style="mix-blend-mode:screen" opacity="0.5">
<path d="M777.273 141.82L686.934 194.376L777.867 246.932L868.206 194.376L777.273 141.82Z" fill="#29A9E1"/>
</g>
<g style="mix-blend-mode:multiply" opacity="0.5">
<path d="M747.302 190.67L656.963 243.226L747.896 295.782L838.235 243.226L747.302 190.67Z" fill="#29A9E1"/>
</g>
<g style="mix-blend-mode:screen" opacity="0.5">
<path d="M792.261 205.23L701.922 257.786L792.849 310.342L883.189 257.786L792.261 205.23Z" fill="#29A9E1"/>
</g>
<g style="mix-blend-mode:multiply" opacity="0.5">
<path d="M762.29 254.081L671.951 306.637L762.879 359.193L853.224 306.637L762.29 254.081Z" fill="#29A9E1"/>
</g>
<g style="mix-blend-mode:screen" opacity="0.5">
<path d="M641.686 132.648L551.347 185.204L642.275 237.76L732.614 185.204L641.686 132.648Z" fill="#29A9E1"/>
</g>
<g style="mix-blend-mode:multiply" opacity="0.5">
<path d="M611.716 181.499L521.377 234.055L612.304 286.611L702.643 234.055L611.716 181.499Z" fill="#29A9E1"/>
</g>
<g style="mix-blend-mode:screen" opacity="0.5">
<path d="M656.669 196.059L566.33 248.615L657.263 301.171L747.602 248.615L656.669 196.059Z" fill="#29A9E1"/>
</g>
<g style="mix-blend-mode:multiply" opacity="0.5">
<path d="M626.698 244.91L536.359 297.466L627.292 350.022L717.631 297.466L626.698 244.91Z" fill="#29A9E1"/>
</g>
<g style="mix-blend-mode:screen" opacity="0.5">
<path d="M709.841 265.297L619.501 317.853L710.434 370.403L800.774 317.847L709.841 265.297Z" fill="#29A9E1"/>
</g>
<g style="mix-blend-mode:multiply" opacity="0.5">
<path d="M679.875 314.147L589.531 366.703L680.464 419.259L770.803 366.703L679.875 314.147Z" fill="#29A9E1"/>
</g>
<g style="mix-blend-mode:screen" opacity="0.5">
<path d="M724.829 328.707L634.489 381.263L725.417 433.819L815.762 381.263L724.829 328.707Z" fill="#29A9E1"/>
</g>
<g style="mix-blend-mode:multiply" opacity="0.5">
<path d="M694.858 377.558L604.519 430.114L695.452 482.67L785.791 430.114L694.858 377.558Z" fill="#29A9E1"/>
</g>
<g style="mix-blend-mode:screen" opacity="0.5">
<path d="M558.539 210.48L468.2 263.036L559.133 315.592L649.472 263.036L558.539 210.48Z" fill="#29A9E1"/>
</g>
<g style="mix-blend-mode:multiply" opacity="0.5">
<path d="M528.574 259.33L438.229 311.886L529.162 364.442L619.501 311.886L528.574 259.33Z" fill="#29A9E1"/>
</g>
<g style="mix-blend-mode:screen" opacity="0.5">
<path d="M573.527 273.89L483.188 326.446L574.115 379.002L664.454 326.446L573.527 273.89Z" fill="#29A9E1"/>
</g>
<g style="mix-blend-mode:multiply" opacity="0.5">
<path d="M543.556 322.741L453.217 375.297L544.15 427.853L634.489 375.297L543.556 322.741Z" fill="#29A9E1"/>
</g>
<g style="mix-blend-mode:screen" opacity="0.5">
<path d="M416.454 134.72L326.109 187.276L417.042 239.832L507.382 187.271L416.454 134.72Z" fill="#29A9E1"/>
</g>
<g style="mix-blend-mode:multiply" opacity="0.5">
<path d="M386.484 183.571L296.144 236.127L387.072 288.678L477.411 236.122L386.484 183.571Z" fill="#29A9E1"/>
</g>
<g style="mix-blend-mode:screen" opacity="0.5">
<path d="M431.437 198.131L341.097 250.687L432.025 303.243L522.37 250.687L431.437 198.131Z" fill="#29A9E1"/>
</g>
<g style="mix-blend-mode:multiply" opacity="0.5">
<path d="M401.466 246.982L311.127 299.538L402.06 352.094L492.399 299.538L401.466 246.982Z" fill="#29A9E1"/>
</g>
<g style="mix-blend-mode:screen" opacity="0.5">
<path d="M393.975 235.005L303.636 287.561L394.563 340.117L484.908 287.561L393.975 235.005Z" fill="#29A9E1"/>
</g>
<g style="mix-blend-mode:multiply" opacity="0.5">
<path d="M364.004 283.856L273.665 336.412L364.598 388.968L454.937 336.412L364.004 283.856Z" fill="#29A9E1"/>
</g>
<g style="mix-blend-mode:screen" opacity="0.5">
<path d="M408.957 298.416L318.618 350.972L409.551 403.528L499.89 350.972L408.957 298.416Z" fill="#29A9E1"/>
</g>
<g style="mix-blend-mode:multiply" opacity="0.5">
<path d="M378.992 347.266L288.647 399.822L379.581 452.378L469.92 399.822L378.992 347.266Z" fill="#29A9E1"/>
</g>
<g style="mix-blend-mode:screen" opacity="0.5">
<path d="M528.574 343.689L438.229 396.245L529.162 448.801L619.501 396.245L528.574 343.689Z" fill="#29A9E1"/>
</g>
<g style="mix-blend-mode:multiply" opacity="0.5">
<path d="M498.603 392.54L408.264 445.096L499.191 497.652L589.531 445.096L498.603 392.54Z" fill="#29A9E1"/>
</g>
<g style="mix-blend-mode:screen" opacity="0.5">
<path d="M543.556 407.105L453.217 459.661L544.15 512.211L634.489 459.655L543.556 407.105Z" fill="#29A9E1"/>
</g>
<g style="mix-blend-mode:multiply" opacity="0.5">
<path d="M513.586 455.95L423.246 508.506L514.179 561.062L604.519 508.506L513.586 455.95Z" fill="#29A9E1"/>
</g>
<g style="mix-blend-mode:screen" opacity="0.5">
<path d="M543.556 474.998L453.217 527.554L544.15 580.11L634.489 527.549L543.556 474.998Z" fill="#29A9E1"/>
</g>
<g style="mix-blend-mode:multiply" opacity="0.5">
<path d="M513.586 523.849L423.246 576.405L514.179 628.956L604.519 576.4L513.586 523.849Z" fill="#29A9E1"/>
</g>
<g style="mix-blend-mode:screen" opacity="0.5">
<path d="M558.539 538.409L468.2 590.965L559.133 643.521L649.472 590.965L558.539 538.409Z" fill="#29A9E1"/>
</g>
<g style="mix-blend-mode:multiply" opacity="0.5">
<path d="M528.574 587.26L438.229 639.816L529.162 692.372L619.501 639.816L528.574 587.26Z" fill="#29A9E1"/>
</g>
<g style="mix-blend-mode:screen" opacity="0.5">
<path d="M792.988 403.527L702.643 456.084L793.576 508.64L883.916 456.084L792.988 403.527Z" fill="#29A9E1"/>
</g>
<g style="mix-blend-mode:multiply" opacity="0.5">
<path d="M763.018 452.378L672.678 504.934L763.606 557.49L853.945 504.934L763.018 452.378Z" fill="#29A9E1"/>
</g>
<g style="mix-blend-mode:screen" opacity="0.5">
<path d="M807.971 466.938L717.631 519.494L808.564 572.05L898.904 519.494L807.971 466.938Z" fill="#29A9E1"/>
</g>
<g style="mix-blend-mode:multiply" opacity="0.5">
<path d="M778 515.789L687.661 568.345L778.594 620.901L868.933 568.345L778 515.789Z" fill="#29A9E1"/>
</g>
<g style="mix-blend-mode:screen" opacity="0.5">
<path d="M860.421 238.577L770.076 291.133L861.009 343.689L951.348 291.133L860.421 238.577Z" fill="#29A9E1"/>
</g>
<g style="mix-blend-mode:multiply" opacity="0.5">
<path d="M830.45 287.428L740.105 339.984L831.038 392.54L921.377 339.984L830.45 287.428Z" fill="#29A9E1"/>
</g>
<g style="mix-blend-mode:screen" opacity="0.5">
<path d="M875.403 301.993L785.064 354.549L875.997 407.105L966.336 354.549L875.403 301.993Z" fill="#29A9E1"/>
</g>
<g style="mix-blend-mode:multiply" opacity="0.5">
<path d="M845.433 350.844L755.093 403.4L846.026 455.95L936.366 403.394L845.433 350.844Z" fill="#29A9E1"/>
</g>
<g style="mix-blend-mode:screen" opacity="0.5">
<path d="M692.327 121.416L656.403 142.314L692.566 163.218L728.491 142.314L692.327 121.416Z" fill="#29A9E1"/>
</g>
<g style="mix-blend-mode:multiply" opacity="0.5">
<path d="M680.408 140.842L644.483 161.745L680.647 182.643L716.571 161.745L680.408 140.842Z" fill="#29A9E1"/>
</g>
<g style="mix-blend-mode:screen" opacity="0.5">
<path d="M725.395 176.388L689.464 197.286L725.628 218.19L761.553 197.286L725.395 176.388Z" fill="#29A9E1"/>
</g>
<g style="mix-blend-mode:multiply" opacity="0.5">
<path d="M713.475 195.814L677.55 216.718L713.708 237.616L749.633 216.718L713.475 195.814Z" fill="#29A9E1"/>
</g>
<g style="mix-blend-mode:screen" opacity="0.5">
<path d="M752.208 110.795L716.283 131.693L752.446 152.591L788.371 131.693L752.208 110.795Z" fill="#29A9E1"/>
</g>
<g style="mix-blend-mode:multiply" opacity="0.5">
<path d="M740.288 130.221L704.364 151.119L740.527 172.022L776.452 151.119L740.288 130.221Z" fill="#29A9E1"/>
</g>
<g style="mix-blend-mode:screen" opacity="0.5">
<path d="M149.992 366.47L114.062 387.368L150.225 408.271L186.15 387.368L149.992 366.47Z" fill="#29A9E1"/>
</g>
<g style="mix-blend-mode:multiply" opacity="0.5">
<path d="M138.073 385.896L102.148 406.794L138.306 427.697L174.236 406.794L138.073 385.896Z" fill="#29A9E1"/>
</g>
<g style="mix-blend-mode:screen" opacity="0.5">
<path d="M183.054 421.442L147.129 442.34L183.292 463.238L219.217 442.34L183.054 421.442Z" fill="#29A9E1"/>
</g>
<g style="mix-blend-mode:multiply" opacity="0.5">
<path d="M171.134 440.868L135.209 461.766L171.373 482.67L207.298 461.766L171.134 440.868Z" fill="#29A9E1"/>
</g>
<g style="mix-blend-mode:screen" opacity="0.5">
<path d="M209.872 355.843L173.942 376.747L210.105 397.645L246.03 376.747L209.872 355.843Z" fill="#29A9E1"/>
</g>
<g style="mix-blend-mode:multiply" opacity="0.5">
<path d="M197.953 375.269L162.028 396.173L198.186 417.071L234.111 396.173L197.953 375.269Z" fill="#29A9E1"/>
</g>
<g style="mix-blend-mode:screen" opacity="0.5">
<path d="M47.8443 538.176L11.9194 559.074L48.0829 579.977L84.0078 559.074L47.8443 538.176Z" fill="#29A9E1"/>
</g>
<g style="mix-blend-mode:multiply" opacity="0.5">
<path d="M35.9249 557.601L0 578.505L36.1635 599.403L72.0883 578.505L35.9249 557.601Z" fill="#29A9E1"/>
</g>
<g style="mix-blend-mode:screen" opacity="0.5">
<path d="M80.9114 593.148L44.981 614.046L81.1445 634.949L117.069 614.046L80.9114 593.148Z" fill="#29A9E1"/>
</g>
<g style="mix-blend-mode:multiply" opacity="0.5">
<path d="M68.9919 612.574L33.067 633.477L69.225 654.375L105.15 633.477L68.9919 612.574Z" fill="#29A9E1"/>
</g>
<g style="mix-blend-mode:screen" opacity="0.5">
<path d="M107.725 527.549L71.7997 548.452L107.963 569.35L143.888 548.452L107.725 527.549Z" fill="#29A9E1"/>
</g>
<g style="mix-blend-mode:multiply" opacity="0.5">
<path d="M95.8051 546.98L59.8803 567.878L96.0437 588.776L131.969 567.878L95.8051 546.98Z" fill="#29A9E1"/>
</g>
<g style="mix-blend-mode:screen" opacity="0.5">
<path d="M399.002 536.076L363.077 556.974L399.241 577.877L435.166 556.974L399.002 536.076Z" fill="#29A9E1"/>
</g>
<g style="mix-blend-mode:multiply" opacity="0.5">
<path d="M387.083 555.502L351.158 576.405L387.322 597.303L423.246 576.405L387.083 555.502Z" fill="#29A9E1"/>
</g>
<g style="mix-blend-mode:screen" opacity="0.5">
<path d="M432.069 591.048L396.139 611.946L432.302 632.85L468.227 611.946L432.069 591.048Z" fill="#29A9E1"/>
</g>
<g style="mix-blend-mode:multiply" opacity="0.5">
<path d="M420.15 610.474L384.225 631.378L420.383 652.276L456.313 631.378L420.15 610.474Z" fill="#29A9E1"/>
</g>
<g style="mix-blend-mode:screen" opacity="0.5">
<path d="M458.883 525.449L422.958 546.353L459.121 567.251L495.046 546.353L458.883 525.449Z" fill="#29A9E1"/>
</g>
<g style="mix-blend-mode:multiply" opacity="0.5">
<path d="M446.963 544.88L411.038 565.778L447.202 586.682L483.127 565.778L446.963 544.88Z" fill="#29A9E1"/>
</g>
<g style="mix-blend-mode:screen" opacity="0.5">
<path d="M675.236 23.6144L639.306 44.5123L675.469 65.4103L711.394 44.5123L675.236 23.6144Z" fill="#29A9E1"/>
</g>
<g style="mix-blend-mode:multiply" opacity="0.5">
<path d="M663.317 43.0402L627.392 63.9382L663.55 84.8417L699.475 63.9382L663.317 43.0402Z" fill="#29A9E1"/>
</g>
<g style="mix-blend-mode:screen" opacity="0.5">
<path d="M708.298 78.5868L672.373 99.4848L708.531 120.383L744.461 99.4848L708.298 78.5868Z" fill="#29A9E1"/>
</g>
<g style="mix-blend-mode:multiply" opacity="0.5">
<path d="M696.378 98.0127L660.454 118.911L696.617 139.814L732.542 118.911L696.378 98.0127Z" fill="#29A9E1"/>
</g>
<g style="mix-blend-mode:screen" opacity="0.5">
<path d="M735.117 12.9876L699.186 33.8911L735.35 54.7891L771.275 33.8911L735.117 12.9876Z" fill="#29A9E1"/>
</g>
<g style="mix-blend-mode:multiply" opacity="0.5">
<path d="M723.197 32.4135L687.272 53.317L723.43 74.215L759.355 53.317L723.197 32.4135Z" fill="#29A9E1"/>
</g>
<g style="mix-blend-mode:screen" opacity="0.5">
<path d="M366.673 162.04L330.748 182.943L366.912 203.841L402.837 182.943L366.673 162.04Z" fill="#29A9E1"/>
</g>
<g style="mix-blend-mode:multiply" opacity="0.5">
<path d="M354.754 181.471L318.829 202.369L354.992 223.267L390.917 202.369L354.754 181.471Z" fill="#29A9E1"/>
</g>
<g style="mix-blend-mode:screen" opacity="0.5">
<path d="M399.74 217.012L363.815 237.916L399.973 258.814L435.898 237.916L399.74 217.012Z" fill="#29A9E1"/>
</g>
<g style="mix-blend-mode:multiply" opacity="0.5">
<path d="M387.821 236.438L351.896 257.342L388.054 278.24L423.984 257.342L387.821 236.438Z" fill="#29A9E1"/>
</g>
<g style="mix-blend-mode:screen" opacity="0.5">
<path d="M426.554 151.419L390.629 172.317L426.792 193.22L462.717 172.317L426.554 151.419Z" fill="#29A9E1"/>
</g>
<g style="mix-blend-mode:multiply" opacity="0.5">
<path d="M414.64 170.844L378.709 191.748L414.873 212.646L450.798 191.742L414.64 170.844Z" fill="#29A9E1"/>
</g>
<g style="mix-blend-mode:screen" opacity="0.5">
<path d="M551.048 0L460.708 52.556L551.641 105.112L641.981 52.556L551.048 0Z" fill="#29A9E1"/>
</g>
<g style="mix-blend-mode:multiply" opacity="0.5">
<path d="M521.077 48.8508L430.738 101.407L521.671 153.963L612.01 101.407L521.077 48.8508Z" fill="#29A9E1"/>
</g>
<g style="mix-blend-mode:screen" opacity="0.5">
<path d="M566.036 63.4106L475.691 115.967L566.624 168.523L656.963 115.967L566.036 63.4106Z" fill="#29A9E1"/>
</g>
<g style="mix-blend-mode:multiply" opacity="0.5">
<path d="M536.065 112.261L445.726 164.817L536.653 217.373L626.992 164.817L536.065 112.261Z" fill="#29A9E1"/>
</g>
<g style="mix-blend-mode:screen" opacity="0.5">
<path d="M192.254 117.644L101.915 170.195L192.842 222.751L283.187 170.195L192.254 117.644Z" fill="#29A9E1"/>
</g>
<g style="mix-blend-mode:multiply" opacity="0.5">
<path d="M162.283 166.489L71.944 219.045L162.877 271.601L253.216 219.045L162.283 166.489Z" fill="#29A9E1"/>
</g>
<g style="mix-blend-mode:screen" opacity="0.5">
<path d="M207.237 181.055L116.897 233.611L207.83 286.167L298.17 233.611L207.237 181.055Z" fill="#29A9E1"/>
</g>
<g style="mix-blend-mode:multiply" opacity="0.5">
<path d="M177.266 229.906L86.9266 282.462L177.86 335.018L268.199 282.462L177.266 229.906Z" fill="#29A9E1"/>
</g>
<g style="mix-blend-mode:screen" opacity="0.5">
<path d="M251.746 299.354L161.407 351.91L252.334 404.466L342.679 351.91L251.746 299.354Z" fill="#29A9E1"/>
</g>
<g style="mix-blend-mode:multiply" opacity="0.5">
<path d="M221.775 348.205L131.436 400.761L222.369 453.317L312.708 400.761L221.775 348.205Z" fill="#29A9E1"/>
</g>
<g style="mix-blend-mode:screen" opacity="0.5">
<path d="M266.728 362.765L176.389 415.321L267.322 467.877L357.661 415.321L266.728 362.765Z" fill="#29A9E1"/>
</g>
<g style="mix-blend-mode:multiply" opacity="0.5">
<path d="M236.758 411.616L146.418 464.172L237.351 516.728L327.691 464.172L236.758 411.616Z" fill="#29A9E1"/>
</g>
<g style="mix-blend-mode:screen" opacity="0.5">
<path d="M249.443 462.205L159.104 514.761L250.037 567.317L340.376 514.761L249.443 462.205Z" fill="#29A9E1"/>
</g>
<g style="mix-blend-mode:multiply" opacity="0.5">
<path d="M219.472 511.056L129.133 563.612L220.066 616.168L310.405 563.612L219.472 511.056Z" fill="#29A9E1"/>
</g>
<g style="mix-blend-mode:screen" opacity="0.5">
<path d="M264.431 525.616L174.092 578.172L265.019 630.728L355.359 578.172L264.431 525.616Z" fill="#29A9E1"/>
</g>
<g style="mix-blend-mode:multiply" opacity="0.5">
<path d="M234.461 574.467L144.121 627.023L235.049 679.579L325.388 627.023L234.461 574.467Z" fill="#29A9E1"/>
</g>
</g>
</svg>
