<svg width="30" height="30" viewBox="0 0 30 30" fill="none" xmlns="http://www.w3.org/2000/svg">
<path d="M25.6114 4.38882C19.7586 -1.4627 10.2404 -1.4627 4.38767 4.38882C-1.46256 10.2403 -1.46256 19.761 4.38767 25.6125C7.31404 28.5377 11.1571 29.9996 15.0002 29.9996C18.8433 29.9996 22.685 28.5376 25.6114 25.6125C31.4629 19.7611 31.4629 10.2403 25.6114 4.38882ZM21.1893 19.4221C21.6782 19.9111 21.6782 20.7015 21.1893 21.1904C20.9454 21.4343 20.6253 21.5569 20.3051 21.5569C19.985 21.5569 19.6648 21.4343 19.4209 21.1904L15.0001 16.7683L10.5805 21.1891C10.3354 21.433 10.0152 21.5556 9.69635 21.5556C9.37622 21.5556 9.05603 21.433 8.81216 21.1891C8.3232 20.7002 8.3232 19.9086 8.81216 19.4208L13.2317 15L8.81093 10.5792C8.32197 10.0903 8.32197 9.29864 8.81093 8.81091C9.29866 8.32195 10.0903 8.32195 10.5792 8.81091L15 13.2317L19.4208 8.81091C19.9098 8.32195 20.7002 8.32195 21.1892 8.81091C21.6781 9.29864 21.6781 10.0903 21.1892 10.5792L16.7684 15L21.1893 19.4221Z" fill="white"/>
</svg>
